<svg id="visual" viewBox="0 0 900 600" width="900" height="600" xmlns="http://www.w3.org/2000/svg" xmlns:xlink="http://www.w3.org/1999/xlink" version="1.1"><rect x="0" y="0" width="900" height="600" fill="#001220"></rect><defs><linearGradient id="grad1_0" x1="33.3%" y1="0%" x2="100%" y2="100%"><stop offset="20%" stop-color="#001220" stop-opacity="1"></stop><stop offset="80%" stop-color="#001220" stop-opacity="1"></stop></linearGradient></defs><defs><linearGradient id="grad2_0" x1="0%" y1="0%" x2="66.7%" y2="100%"><stop offset="20%" stop-color="#001220" stop-opacity="1"></stop><stop offset="80%" stop-color="#001220" stop-opacity="1"></stop></linearGradient></defs><g transform="translate(900, 0)"><path d="M0 486.7C-66.8 483.1 -133.6 479.5 -186.3 449.7C-238.9 419.9 -277.4 364.1 -315.4 315.4C-353.4 266.7 -391 225.1 -419.4 173.7C-447.9 122.4 -467.3 61.2 -486.7 0L0 0Z" fill="#FBAE3C"></path></g><g transform="translate(0, 600)"><path d="M0 -486.7C56.3 -467.4 112.6 -448.1 177.9 -429.6C243.3 -411.1 317.7 -393.5 344.2 -344.2C370.6 -294.9 349.2 -213.8 364.9 -151.2C380.7 -88.5 433.7 -44.3 486.7 0L0 0Z" fill="#FBAE3C"></path></g></svg>