<svg id="visual" viewBox="0 0 900 600" width="900" height="600" xmlns="http://www.w3.org/2000/svg" xmlns:xlink="http://www.w3.org/1999/xlink" version="1.1"><rect x="0" y="0" width="900" height="600" fill="#feffff"></rect><path d="M0 353L21.5 366C43 379 86 405 128.8 417.7C171.7 430.3 214.3 429.7 257.2 422.8C300 416 343 403 385.8 400.5C428.7 398 471.3 406 514.2 410.7C557 415.3 600 416.7 642.8 415.3C685.7 414 728.3 410 771.2 408.3C814 406.7 857 407.3 878.5 407.7L900 408L900 601L878.5 601C857 601 814 601 771.2 601C728.3 601 685.7 601 642.8 601C600 601 557 601 514.2 601C471.3 601 428.7 601 385.8 601C343 601 300 601 257.2 601C214.3 601 171.7 601 128.8 601C86 601 43 601 21.5 601L0 601Z" fill="#fa7268"></path><path d="M0 431L21.5 436.2C43 441.3 86 451.7 128.8 457.8C171.7 464 214.3 466 257.2 455.2C300 444.3 343 420.7 385.8 408.3C428.7 396 471.3 395 514.2 397.2C557 399.3 600 404.7 642.8 409C685.7 413.3 728.3 416.7 771.2 424.5C814 432.3 857 444.7 878.5 450.8L900 457L900 601L878.5 601C857 601 814 601 771.2 601C728.3 601 685.7 601 642.8 601C600 601 557 601 514.2 601C471.3 601 428.7 601 385.8 601C343 601 300 601 257.2 601C214.3 601 171.7 601 128.8 601C86 601 43 601 21.5 601L0 601Z" fill="#ef5f67"></path><path d="M0 507L21.5 504.7C43 502.3 86 497.7 128.8 493C171.7 488.3 214.3 483.7 257.2 474.3C300 465 343 451 385.8 447.8C428.7 444.7 471.3 452.3 514.2 454C557 455.7 600 451.3 642.8 459.2C685.7 467 728.3 487 771.2 489C814 491 857 475 878.5 467L900 459L900 601L878.5 601C857 601 814 601 771.2 601C728.3 601 685.7 601 642.8 601C600 601 557 601 514.2 601C471.3 601 428.7 601 385.8 601C343 601 300 601 257.2 601C214.3 601 171.7 601 128.8 601C86 601 43 601 21.5 601L0 601Z" fill="#e34c67"></path><path d="M0 480L21.5 487.2C43 494.3 86 508.7 128.8 516.2C171.7 523.7 214.3 524.3 257.2 518.7C300 513 343 501 385.8 503.5C428.7 506 471.3 523 514.2 531.5C557 540 600 540 642.8 539.5C685.7 539 728.3 538 771.2 533.8C814 529.7 857 522.3 878.5 518.7L900 515L900 601L878.5 601C857 601 814 601 771.2 601C728.3 601 685.7 601 642.8 601C600 601 557 601 514.2 601C471.3 601 428.7 601 385.8 601C343 601 300 601 257.2 601C214.3 601 171.7 601 128.8 601C86 601 43 601 21.5 601L0 601Z" fill="#d53867"></path><path d="M0 541L21.5 540.8C43 540.7 86 540.3 128.8 540.2C171.7 540 214.3 540 257.2 541.2C300 542.3 343 544.7 385.8 548.7C428.7 552.7 471.3 558.3 514.2 557.2C557 556 600 548 642.8 544.2C685.7 540.3 728.3 540.7 771.2 538C814 535.3 857 529.7 878.5 526.8L900 524L900 601L878.5 601C857 601 814 601 771.2 601C728.3 601 685.7 601 642.8 601C600 601 557 601 514.2 601C471.3 601 428.7 601 385.8 601C343 601 300 601 257.2 601C214.3 601 171.7 601 128.8 601C86 601 43 601 21.5 601L0 601Z" fill="#c62368"></path></svg>