<svg id="visual" viewBox="0 0 900 600" width="900" height="600" xmlns="http://www.w3.org/2000/svg" xmlns:xlink="http://www.w3.org/1999/xlink" version="1.1"><rect x="0" y="0" width="900" height="600" fill="#140021"></rect><path d="M423 0L431 0L431 86L509 86L509 171L556 171L556 257L458 257L458 343L477 343L477 429L530 429L530 514L466 514L466 600L0 600L0 514L0 514L0 429L0 429L0 343L0 343L0 257L0 257L0 171L0 171L0 86L0 86L0 0L0 0Z" fill="#9900ff"></path><path d="M393 0L335 0L335 86L310 86L310 171L428 171L428 257L306 257L306 343L327 343L327 429L326 429L326 514L397 514L397 600L0 600L0 514L0 514L0 429L0 429L0 343L0 343L0 257L0 257L0 171L0 171L0 86L0 86L0 0L0 0Z" fill="#7700c6"></path><path d="M93 0L194 0L194 86L176 86L176 171L208 171L208 257L252 257L252 343L101 343L101 429L244 429L244 514L96 514L96 600L0 600L0 514L0 514L0 429L0 429L0 343L0 343L0 257L0 257L0 171L0 171L0 86L0 86L0 0L0 0Z" fill="#560090"></path></svg>